<?xml version="1.0" encoding="UTF-8" standalone="no"?>
<svg
   xmlns:dc="http://purl.org/dc/elements/1.1/"
   xmlns:cc="http://creativecommons.org/ns#"
   xmlns:rdf="http://www.w3.org/1999/02/22-rdf-syntax-ns#"
   xmlns:svg="http://www.w3.org/2000/svg"
   xmlns="http://www.w3.org/2000/svg"
   xmlns:sodipodi="http://sodipodi.sourceforge.net/DTD/sodipodi-0.dtd"
   xmlns:inkscape="http://www.inkscape.org/namespaces/inkscape"
   width="120.45763mm"
   height="85.747108mm"
   viewBox="0 0 120.45763 85.747107"
   version="1.1"
   id="svg8"
   sodipodi:docname="rhinodark.svg"
   style="enable-background:new"
   inkscape:version="0.92.4 (unknown)">
  <sodipodi:namedview
     pagecolor="#ffffff"
     bordercolor="#666666"
     borderopacity="1"
     objecttolerance="10"
     gridtolerance="10"
     guidetolerance="10"
     inkscape:pageopacity="0"
     inkscape:pageshadow="2"
     inkscape:window-width="1366"
     inkscape:window-height="704"
     id="namedview3970"
     showgrid="false"
     fit-margin-top="0"
     fit-margin-left="0"
     fit-margin-right="0"
     fit-margin-bottom="0"
     inkscape:zoom="0.45789843"
     inkscape:cx="423.58978"
     inkscape:cy="-235.10839"
     inkscape:window-x="0"
     inkscape:window-y="27"
     inkscape:window-maximized="1"
     inkscape:current-layer="svg8" />
  <defs
     id="defs2">
    <filter
       style="color-interpolation-filters:sRGB"
       id="filter3880">
      <feBlend
         mode="overlay"
         in2="BackgroundImage"
         id="feBlend3882" />
    </filter>
  </defs>
  <metadata
     id="metadata5">
    <rdf:RDF>
      <cc:Work
         rdf:about="">
        <dc:format>image/svg+xml</dc:format>
        <dc:type
           rdf:resource="http://purl.org/dc/dcmitype/StillImage" />
        <dc:title></dc:title>
      </cc:Work>
    </rdf:RDF>
  </metadata>
  <g
     id="layer3"
     style="display:inline;opacity:0.67000002"
     transform="translate(-4.7238564,-0.54712618)" />
  <g
     id="layer13"
     transform="translate(-4.7238564,-0.54712618)" />
  <g
     id="layer2"
     style="display:inline;opacity:0.40900005;filter:url(#filter3880)"
     transform="translate(-4.7238564,-0.54712618)" />
  <g
     id="layer4"
     style="display:inline;opacity:0.4"
     transform="translate(-4.7238564,-0.54712618)" />
  <g
     id="layer5"
     style="display:inline;opacity:0.50199998"
     transform="translate(-4.7238564,-0.54712618)" />
  <g
     id="layer10"
     style="display:inline;opacity:0.9"
     transform="translate(-4.7238564,-0.54712618)" />
  <g
     id="layer8"
     style="display:inline;opacity:0.4"
     transform="translate(-4.7238564,-0.54712618)" />
  <g
     id="layer9"
     style="display:inline"
     transform="translate(-4.7238564,-0.54712618)" />
  <g
     id="layer6"
     style="display:inline;opacity:0.4"
     transform="translate(-4.7238564,-0.54712618)" />
  <g
     id="layer7"
     style="display:inline;opacity:0.4"
     transform="translate(-4.7238564,-0.54712618)" />
  <g
     id="g3985"
     transform="translate(-30.293943,-68.584042)">
    <path
       style="display:inline;opacity:0.67000002;fill:#999999;stroke-width:0.30083925"
       d="m 70.019366,141.14377 c 7.332227,8.60906 -10.837752,7.27905 -11.434048,3.7614 0,0 -4.729038,-10.28438 -3.148127,-13.33372 10.018317,-19.32387 -28.102038,-16.95231 19.237552,-17.75937 35.606127,-0.60701 11.693501,-7.04229 -5.976696,16.58065 -1.805827,2.41416 -0.0036,9.19539 1.321319,10.75104 z"
       id="path3919"
       inkscape:connector-curvature="0" />
    <path
       style="display:inline;opacity:0.67000002;fill:#999999;stroke-width:0.34608674"
       d="m 58.86803,120.47554 c -5.896187,3.88541 -6.81447,15.96709 -5.271207,24.22902 7.217754,10.39291 -11.667003,8.8355 -13.605954,4.62502 -0.89223,-2.42901 1.885236,-7.22378 1.491557,-10.93895 -0.499731,-4.71594 -1.484168,-9.3513 -4.813484,-13.67217 -6.662908,-8.64727 -6.373946,-24.777095 0.884803,-34.124373 9.697394,-12.487581 21.853012,-16.632589 34.467229,-14.910734 4.791907,0.654104 -8.029562,41.416057 -13.152944,44.792187 z"
       id="path3917"
       inkscape:connector-curvature="0" />
    <path
       style="display:inline;opacity:0.67000002;fill:#999999;stroke-width:0.28884029"
       d="m 116.89533,145.85259 c -2.51543,1.025 -6.13359,-2.74542 -7.43558,-6.6292 -3.34546,-9.97913 5.22313,-7.72607 5.22313,-7.72607 0,0 1.5743,-0.75706 2.39397,0.75939 2.01591,3.42903 2.68545,12.177 -0.18152,13.59588 z"
       id="path3934"
       inkscape:connector-curvature="0" />
    <path
       style="display:inline;opacity:0.40900005;fill:#cccccc;stroke-width:0.28173983;filter:url(#filter3880)"
       d="m 120.27129,84.649077 c 0,18.424163 -20.03177,48.232863 -37.818637,48.232863 -17.78687,0 -31.537804,-7.15176 -31.537805,-25.57592 -10e-7,-18.424173 20.164257,-36.514454 30.602362,-30.996921 4.652834,2.459466 38.75408,-10.084191 38.75408,8.339978 z"
       id="path3903"
       transform="matrix(1.0301589,0,0,0.95144218,-5.6751468,3.7745896)"
       inkscape:connector-curvature="0" />
    <path
       style="display:inline;opacity:0.4;fill:#999999;stroke-width:0.27426073"
       d="m 130.58406,100.37579 c 0.0418,8.91 -60.091832,40.74271 -71.409771,18.1381 -9.400363,-18.77475 8.883868,-41.008607 45.869321,-41.911132 6.78219,-0.08909 25.45425,5.407362 25.54045,23.773032 z"
       id="path3905"
       inkscape:connector-curvature="0" />
    <path
       style="display:inline;opacity:0.50199998;fill:#999999;stroke-width:0.21322654"
       d="m 139.11378,103.75658 c -1.45141,43.63864 -7.96746,24.81639 -16.97161,24.81638 -9.00414,-1e-5 -16.30343,-8.83698 -16.30343,-19.73795 0,-10.900957 5.34695,-24.405058 13.38361,-20.181679 7.93506,4.169987 20.28471,3.278782 19.89143,15.103249 z"
       id="path3907"
       inkscape:connector-curvature="0" />
    <path
       style="display:inline;opacity:0.50199998;fill:#999999;stroke-width:0.26193064"
       d="m 137.58443,113.77108 c 0,0 -17.88876,26.79604 -21.35118,15.5641 -2.05236,-6.65783 -34.308888,0.37063 -36.03203,-7.04391 -1.861512,-8.00997 20.101,-40.610995 39.55175,-38.862896 0,0 5.66014,2.193386 11.20907,14.98166"
       id="path3909"
       inkscape:connector-curvature="0" />
    <g
       id="g3966"
       style="display:inline;opacity:0.50199998;fill:#999999"
       transform="matrix(1.0933626,0,0,0.95341858,-12.61546,5.4384493)">
      <path
         id="path3911"
         d="m 141.41767,131.02823 c 1.36028,2.49672 -2.38806,12.06116 -2.38806,12.06116 0,0 -9.48915,3.21646 -12.79058,1.23038 -1.48902,-0.89577 -3.08049,-6.41076 -12.30158,-15.99957 -22.284096,-23.17275 3.63563,-29.843568 9.1564,-27.86819 21.63182,7.74006 10.43839,16.10288 18.32382,30.57622 z"
         style="fill:#999999;stroke-width:0.317204"
         inkscape:connector-curvature="0" />
    </g>
    <path
       style="display:inline;opacity:0.50199998;fill:#999999;stroke-width:0.269842"
       d="m 150.33908,86.734065 c -3.17747,12.999031 -7.75082,10.285971 -7.75082,10.285971 -2.74552,3.807654 -5.00383,16.751044 -5.00383,16.751044 1.53237,-3.99278 -31.57802,-41.432416 -4.88514,-23.423024 9.88897,6.67198 2.6167,-5.651179 17.63979,-3.613991 z"
       id="path3947"
       inkscape:connector-curvature="0" />
    <path
       style="display:inline;opacity:0.9;fill:#999999;stroke-width:0.25664932"
       d="m 146.90335,124.39519 c -1.22639,3.45241 -5.18913,12.60592 -9.52874,9.59898 -3.16178,-2.19082 -4.93115,-7.09602 1.06531,-9.79798 2.60678,-1.17461 11.82888,-9.27518 10.75783,-6.26001 -2.2944,6.45901 -2.2944,6.45901 -2.2944,6.45901 z"
       id="path3962"
       inkscape:connector-curvature="0" />
    <path
       style="display:inline;opacity:0.4;fill:#999999;stroke-width:0.28432247"
       d="m 118.13312,104.52602 c 1.17683,16.15395 -51.21688,30.71034 -61.204712,19.87695 -10.748922,-11.65892 -23.653354,0.12574 -23.653352,-15.15096 10e-7,-15.276705 6.400843,-18.767219 22.649799,-31.418003 0,0 59.317355,-12.990427 62.208265,26.692013 z"
       id="path3915"
       inkscape:connector-curvature="0" />
    <path
       style="display:inline;opacity:0.67000002;fill:#999999;stroke-width:0.27259427"
       d="m 108.99732,147.14103 c 3.34576,8.86544 -9.043586,5.24714 -12.860196,2.38832 0,0 -2.612488,-17.80502 -7.957171,-24.76354 -4.508148,-4.40244 10.401074,-20.25715 18.057387,-17.27069 6.17981,2.41052 6.11258,16.4593 2.16858,20.47118 -2.58867,2.6332 -2.32887,5.08416 -2.22593,9.35243 0.0938,3.88895 1.24171,9.07877 2.81733,9.8223 z"
       id="path3921"
       inkscape:connector-curvature="0" />
  </g>
</svg>
